<?xml version="1.0" encoding="utf-8"?>
<!-- Generator: Adobe Illustrator 16.0.0, SVG Export Plug-In . SVG Version: 6.00 Build 0)  -->
<!DOCTYPE svg PUBLIC "-//W3C//DTD SVG 1.1//EN" "http://www.w3.org/Graphics/SVG/1.1/DTD/svg11.dtd">
<svg version="1.1" id="Layer_1" xmlns="http://www.w3.org/2000/svg" xmlns:xlink="http://www.w3.org/1999/xlink" x="0px" y="0px"
	 width="100%" height="100%" preserveAspectRatio="xMinYMin meet" viewBox="0 0 569.941 106.653" enable-background="new 0 0 569.941 106.653"
	 xml:space="preserve">
<g>
	<path d="M11.852,14.667l-0.126-1.098h-0.054c-0.486,0.684-1.422,1.296-2.665,1.296c-1.765,0-2.665-1.243-2.665-2.503
		c0-2.106,1.873-3.259,5.239-3.241v-0.18c0-0.72-0.198-2.017-1.98-2.017c-0.81,0-1.656,0.252-2.269,0.648l-0.36-1.044
		c0.72-0.468,1.765-0.774,2.863-0.774c2.665,0,3.313,1.818,3.313,3.565v3.259c0,0.756,0.036,1.495,0.144,2.089H11.852z
		 M11.618,10.219c-1.729-0.036-3.691,0.27-3.691,1.962c0,1.026,0.684,1.513,1.494,1.513c1.134,0,1.854-0.72,2.107-1.458
		c0.054-0.162,0.09-0.342,0.09-0.504V10.219z"/>
	<path d="M14.748,16.845c1.279-1.783,2.269-4.123,2.269-7.364c0-3.223-0.972-5.528-2.269-7.31h1.225
		c1.152,1.476,2.359,3.781,2.359,7.328c0,3.529-1.207,5.816-2.359,7.346H14.748z"/>
</g>
<g>
	<path d="M311.442,14.667c0.036-0.594,0.072-1.477,0.072-2.25V1.883h1.566v5.474h0.036c0.559-0.972,1.566-1.603,2.971-1.603
		c2.16,0,3.691,1.8,3.674,4.447c0,3.115-1.963,4.664-3.908,4.664c-1.26,0-2.269-0.486-2.916-1.639h-0.055l-0.072,1.44H311.442z
		 M313.081,11.173c0,0.198,0.036,0.396,0.072,0.576c0.306,1.099,1.224,1.854,2.376,1.854c1.657,0,2.647-1.35,2.647-3.349
		c0-1.747-0.9-3.241-2.593-3.241c-1.08,0-2.089,0.738-2.413,1.945c-0.036,0.18-0.09,0.396-0.09,0.648V11.173z"/>
	<path d="M320.748,16.845c1.279-1.783,2.27-4.123,2.27-7.364c0-3.223-0.973-5.528-2.27-7.31h1.225
		c1.152,1.476,2.359,3.781,2.359,7.328c0,3.529-1.207,5.816-2.359,7.346H320.748z"/>
</g>
<path fill="none" stroke="#C1272D" stroke-width="2" d="M129.993,38.167c0,0,0.121,12.751,0.007,17
	c-0.188,7,3.667,18.102,3.667,24.5c0,11-2.167,14.5-2.167,14.5"/>
<rect x="0" y="60.666" transform="matrix(0.9659 -0.2588 0.2588 0.9659 -12.5795 36.2806)" opacity="0.5" fill="#F7931E" width="263.001" height="10.5"/>
<rect y="60.667" fill="#F7931E" width="263" height="10.5"/>
<path fill="none" stroke="#C1272D" stroke-width="2" stroke-miterlimit="10" d="M436.604,38.462c0,0,0.121,12.752,0.007,17
	c-0.188,7,3.666,18.102,3.667,24.5c0.001,11-2.167,14.5-2.167,14.5"/>
<polygon fill="#F7931E" points="569.941,106.653 438.441,71.167 306.941,106.653 306.941,25.667 438.441,61.667 569.941,25.667 "/>
</svg>
