<?xml version="1.0" encoding="utf-8"?>
<!-- Generator: Adobe Illustrator 16.0.0, SVG Export Plug-In . SVG Version: 6.00 Build 0)  -->
<!DOCTYPE svg PUBLIC "-//W3C//DTD SVG 1.1//EN" "http://www.w3.org/Graphics/SVG/1.1/DTD/svg11.dtd">
<svg version="1.1" id="Layer_1" xmlns="http://www.w3.org/2000/svg" xmlns:xlink="http://www.w3.org/1999/xlink" x="0px" y="0px"
	 width="100%" height="100%" preserveAspectRatio="xMinYMin meet" viewBox="0 0 568.75 91.5" enable-background="new 0 0 568.75 91.5" xml:space="preserve">
<image display="none" overflow="visible" width="569" height="90" xlink:href="naplastovy_steh-aplikace.png"  transform="matrix(1 0 0 1 0 1.5)">
</image>
<rect x="199.375" y="54.875" fill="#CCCCCC" width="173.375" height="36.625"/>
<rect x="393.334" y="54.625" fill="#CCCCCC" width="175.416" height="36.625"/>
<rect x="393.334" y="49.75" fill="#666666" width="175.416" height="5.125"/>
<g>
	<path d="M4.59,5.15c0.021,0.63-0.441,1.134-1.176,1.134c-0.651,0-1.113-0.504-1.113-1.134c0-0.651,0.483-1.155,1.155-1.155
		C4.149,3.996,4.59,4.5,4.59,5.15z M2.533,18.168V8.006H4.38v10.162H2.533z"/>
	<path d="M6.334,20.708c1.491-2.079,2.646-4.808,2.646-8.587c0-3.758-1.134-6.446-2.646-8.524h1.428
		c1.344,1.722,2.75,4.409,2.75,8.545c0,4.115-1.407,6.782-2.75,8.566H6.334z"/>
</g>
<g>
	<path d="M203.59,3.15c0.021,0.63-0.441,1.134-1.176,1.134c-0.651,0-1.113-0.504-1.113-1.134c0-0.651,0.483-1.155,1.155-1.155
		C203.149,1.996,203.59,2.5,203.59,3.15z M201.533,16.168V6.006h1.848v10.162H201.533z"/>
	<path d="M208.504,3.15c0.021,0.63-0.441,1.134-1.176,1.134c-0.651,0-1.113-0.504-1.113-1.134c0-0.651,0.483-1.155,1.155-1.155
		C208.063,1.996,208.504,2.5,208.504,3.15z M206.447,16.168V6.006h1.848v10.162H206.447z"/>
	<path d="M210.248,18.708c1.491-2.079,2.646-4.808,2.646-8.587c0-3.758-1.134-6.446-2.646-8.524h1.428
		c1.344,1.722,2.75,4.409,2.75,8.545c0,4.115-1.407,6.782-2.75,8.566H210.248z"/>
</g>
<g>
	<path d="M396.924,3.15c0.021,0.63-0.441,1.134-1.176,1.134c-0.65,0-1.113-0.504-1.113-1.134c0-0.651,0.483-1.155,1.155-1.155
		C396.482,1.996,396.924,2.5,396.924,3.15z M394.866,16.168V6.006h1.848v10.162H394.866z"/>
	<path d="M401.838,3.15c0.021,0.63-0.441,1.134-1.176,1.134c-0.65,0-1.113-0.504-1.113-1.134c0-0.651,0.483-1.155,1.155-1.155
		C401.396,1.996,401.838,2.5,401.838,3.15z M399.78,16.168V6.006h1.848v10.162H399.78z"/>
	<path d="M406.752,3.15c0.021,0.63-0.441,1.134-1.176,1.134c-0.651,0-1.113-0.504-1.113-1.134c0-0.651,0.482-1.155,1.154-1.155
		C406.311,1.996,406.752,2.5,406.752,3.15z M404.693,16.168V6.006h1.848v10.162H404.693z"/>
	<path d="M408.495,18.708c1.491-2.079,2.646-4.808,2.646-8.587c0-3.758-1.134-6.446-2.646-8.524h1.428
		c1.344,1.722,2.751,4.409,2.751,8.545c0,4.115-1.407,6.782-2.751,8.566H408.495z"/>
</g>
<g>
	<g>
		<line fill="none" stroke="#000000" stroke-width="2" stroke-miterlimit="10" x1="40.667" y1="8.834" x2="40.667" y2="42.096"/>
		<g>
			<path d="M31.067,28.427c0.465-0.297,1.084-0.158,1.381,0.309l8.219,12.904l8.219-12.904c0.297-0.467,0.916-0.605,1.381-0.309
				s0.6,0.92,0.307,1.383L41.51,44.038c-0.184,0.287-0.502,0.463-0.844,0.463s-0.66-0.176-0.844-0.463L30.76,29.81
				c-0.105-0.168-0.156-0.354-0.156-0.537C30.604,28.942,30.768,28.618,31.067,28.427z"/>
		</g>
	</g>
</g>
<g>
	<g>
		<line fill="none" stroke="#000000" stroke-width="2" stroke-miterlimit="10" x1="229.5" y1="33.168" x2="262.762" y2="33.168"/>
		<g>
			<path d="M249.093,42.768c-0.297-0.465-0.158-1.084,0.309-1.381l12.904-8.219l-12.904-8.219c-0.467-0.297-0.605-0.916-0.309-1.381
				s0.92-0.6,1.383-0.307l14.229,9.063c0.287,0.184,0.463,0.502,0.463,0.844s-0.176,0.66-0.463,0.844l-14.229,9.063
				c-0.168,0.105-0.354,0.156-0.537,0.156C249.608,43.231,249.284,43.067,249.093,42.768z"/>
		</g>
	</g>
</g>
<g>
	<g>
		<line fill="none" stroke="#000000" stroke-width="2" stroke-miterlimit="10" x1="332.168" y1="66.834" x2="298.904" y2="66.834"/>
		<g>
			<path d="M312.574,57.234c0.297,0.465,0.158,1.084-0.309,1.381l-12.904,8.219l12.904,8.219c0.467,0.297,0.605,0.916,0.309,1.381
				s-0.92,0.6-1.383,0.307l-14.229-9.063c-0.287-0.184-0.463-0.502-0.463-0.844s0.176-0.66,0.463-0.844l14.229-9.063
				c0.168-0.105,0.354-0.156,0.537-0.156C312.059,56.771,312.383,56.936,312.574,57.234z"/>
		</g>
	</g>
</g>
<g>
	<g>
		<line fill="none" stroke="#000000" stroke-width="2" stroke-miterlimit="10" x1="519.666" y1="8.834" x2="519.666" y2="42.096"/>
		<g>
			<path d="M510.066,28.427c0.465-0.297,1.084-0.158,1.381,0.309l8.219,12.904l8.219-12.904c0.297-0.467,0.916-0.605,1.381-0.309
				s0.6,0.92,0.307,1.383l-9.063,14.229c-0.184,0.287-0.502,0.463-0.844,0.463s-0.66-0.176-0.844-0.463L509.76,29.81
				c-0.105-0.168-0.156-0.354-0.156-0.537C509.604,28.942,509.768,28.618,510.066,28.427z"/>
		</g>
	</g>
</g>
<path fill="none" stroke="#F7931E" stroke-width="3" stroke-miterlimit="10" d="M11.729,48.25h70.833c0,0,28.125-7.25,44.75-17.375
	c17.817-10.851,29.875-25,29.875-25"/>
<polygon fill="#CCCCCC" points="177.875,91.5 0,91.5 0,54.875 82.751,54.875 90.356,79.125 96.5,54.875 177.875,54.875 "/>
<polyline fill="none" stroke="#FF0000" stroke-width="3" stroke-miterlimit="10" points="81.391,50.188 90.356,79.125
	97.938,50.188 "/>
<path fill="none" stroke="#000000" stroke-width="3" stroke-miterlimit="10" d="M81,48.5"/>
<rect x="96.5" y="49.75" fill="#666666" width="81.375" height="5.125"/>
<rect y="49.75" fill="#666666" width="82.751" height="5.125"/>
<path fill="none" stroke="#F7931E" stroke-width="3" stroke-miterlimit="10" d="M210.167,48.266H281c0,0,28.125-7.25,44.75-17.375
	c17.816-10.851,29.875-25,29.875-25"/>
<rect x="199.375" y="49.75" fill="#666666" width="173.375" height="5.125"/>
<line fill="none" stroke="#FF0000" stroke-width="3" stroke-miterlimit="10" x1="280.5" y1="82.25" x2="280.5" y2="49.75"/>
<line fill="none" stroke="#F7931E" stroke-width="3" stroke-miterlimit="10" x1="404.547" y1="48.266" x2="556.047" y2="48.266"/>
<line fill="none" stroke="#FF0000" stroke-width="3" stroke-miterlimit="10" x1="474.75" y1="82.563" x2="474.75" y2="49.75"/>
<g>
</g>
</svg>
